<?xml version="1.0" encoding="iso-8859-1"?>
<!-- Generator: Adobe Illustrator 21.1.0, SVG Export Plug-In . SVG Version: 6.00 Build 0)  -->
<svg version="1.1" id="Layer_1" xmlns="http://www.w3.org/2000/svg" xmlns:xlink="http://www.w3.org/1999/xlink" x="0px" y="0px"
	 viewBox="0 0 26.612 31.218" style="enable-background:new 0 0 26.612 31.218;" xml:space="preserve">
<path style="fill:#253B80;" d="M25.067,8.941c-0.372-0.423-0.834-0.773-1.373-1.059c-0.322-0.171-0.67-0.317-1.046-0.441
	c-0.023-0.008-0.047-0.014-0.07-0.022c0.023,0.007,0.048,0.015,0.071,0.022c0.375,0.124,0.724,0.271,1.046,0.441
	c0.378-2.413-0.003-4.056-1.308-5.543C20.949,0.701,18.353,0,15.032,0H5.389C4.71,0,4.132,0.493,4.027,1.165L0.01,26.624
	c-0.079,0.504,0.309,0.958,0.817,0.958h5.953l0,0l-0.41,2.604c-0.069,0.44,0.27,0.837,0.714,0.837h5.018
	c0.594,0,1.099-0.432,1.193-1.018l0.049-0.255l0.945-5.995l0.061-0.329c0.093-0.588,0.598-1.02,1.193-1.02h0.75
	c4.862,0,8.667-1.974,9.78-7.686C26.537,12.334,26.297,10.342,25.067,8.941z"/>
<path id="XMLID_33_" style="fill:#179BD7;" d="M23.694,7.882c-0.029,0.184-0.062,0.372-0.099,0.565
	c-1.272,6.529-5.622,8.785-11.179,8.785H9.587c-0.68,0-1.252,0.493-1.358,1.164l-1.448,9.186l-0.41,2.604
	c-0.069,0.44,0.27,0.837,0.714,0.837h5.018c0.594,0,1.099-0.432,1.193-1.018l0.049-0.255l0.945-5.995l0.061-0.329
	c0.093-0.588,0.598-1.02,1.193-1.02h0.75c4.862,0,8.667-1.974,9.78-7.686c0.465-2.386,0.224-4.378-1.005-5.78
	C24.695,8.518,24.234,8.168,23.694,7.882z"/>
<path id="XMLID_24_" style="fill:#222D65;" d="M22.364,7.351c-0.194-0.057-0.395-0.108-0.6-0.154
	c-0.207-0.045-0.418-0.085-0.636-0.12c-0.763-0.123-1.599-0.182-2.494-0.182h-7.558c-0.186,0-0.363,0.042-0.521,0.118
	c-0.349,0.168-0.608,0.498-0.67,0.902L8.276,18.098l-0.046,0.297c0.106-0.67,0.678-1.164,1.358-1.164h2.829
	c5.556,0,9.907-2.257,11.179-8.785c0.038-0.193,0.07-0.381,0.099-0.565c-0.322-0.171-0.67-0.317-1.046-0.441
	C22.556,7.41,22.46,7.38,22.364,7.351z"/>
</svg>
